<svg width="117" height="28" viewBox="0 0 117 28" fill="none" xmlns="http://www.w3.org/2000/svg">
<path d="M0.52 27V1.08H4.912L13.48 18.288L22.048 1.08H26.44V27H21.868V11.52L14.344 27H12.616L5.092 11.52V27H0.52ZM31.2047 27V22.104H36.1007V27H31.2047ZM41.2239 27V1.08H46.1199V27H41.2239ZM51.2282 27V22.104H56.1242V27H51.2282ZM66.8995 27V5.652H58.7275V1.08H79.9675V5.652H71.7955V27H66.8995ZM78.9862 27V22.104H83.8822V27H78.9862ZM98.4375 27.54C96.5175 27.54 94.7835 27.204 93.2355 26.532C91.6995 25.848 90.4335 24.876 89.4375 23.616C88.4535 22.344 87.8295 20.832 87.5655 19.08L92.6775 18.324C93.0375 19.812 93.7815 20.958 94.9095 21.762C96.0375 22.566 97.3215 22.968 98.7615 22.968C99.5655 22.968 100.345 22.842 101.101 22.59C101.857 22.338 102.475 21.966 102.955 21.474C103.447 20.982 103.693 20.376 103.693 19.656C103.693 19.392 103.651 19.14 103.567 18.9C103.495 18.648 103.369 18.414 103.189 18.198C103.009 17.982 102.751 17.778 102.415 17.586C102.091 17.394 101.677 17.22 101.173 17.064L94.4415 15.084C93.9375 14.94 93.3495 14.736 92.6775 14.472C92.0175 14.208 91.3755 13.83 90.7515 13.338C90.1275 12.846 89.6055 12.198 89.1855 11.394C88.7775 10.578 88.5735 9.552 88.5735 8.316C88.5735 6.576 89.0115 5.13 89.8875 3.978C90.7635 2.826 91.9335 1.968 93.3975 1.404C94.8615 0.839998 96.4815 0.563998 98.2575 0.575999C100.045 0.599999 101.641 0.905999 103.045 1.494C104.449 2.082 105.625 2.94 106.573 4.068C107.521 5.184 108.205 6.552 108.625 8.172L103.333 9.072C103.141 8.232 102.787 7.524 102.271 6.948C101.755 6.372 101.137 5.934 100.417 5.634C99.7095 5.334 98.9655 5.172 98.1855 5.148C97.4175 5.124 96.6915 5.232 96.0075 5.472C95.3355 5.7 94.7835 6.036 94.3515 6.48C93.9315 6.924 93.7215 7.452 93.7215 8.064C93.7215 8.628 93.8955 9.09 94.2435 9.45C94.5915 9.798 95.0295 10.08 95.5575 10.296C96.0855 10.512 96.6255 10.692 97.1775 10.836L101.677 12.06C102.349 12.24 103.093 12.48 103.909 12.78C104.725 13.068 105.505 13.476 106.249 14.004C107.005 14.52 107.623 15.204 108.103 16.056C108.595 16.908 108.841 17.988 108.841 19.296C108.841 20.688 108.547 21.906 107.959 22.95C107.383 23.982 106.603 24.84 105.619 25.524C104.635 26.196 103.519 26.7 102.271 27.036C101.035 27.372 99.7575 27.54 98.4375 27.54ZM111.596 27V22.104H116.492V27H111.596Z" fill="black"/>
</svg>
