<svg width="138" height="80" viewBox="0 0 138 80" fill="none" xmlns="http://www.w3.org/2000/svg">
<path d="M2.52 34V8.08H6.912L15.48 25.288L24.048 8.08H28.44V34H23.868V18.52L16.344 34H14.616L7.092 18.52V34H2.52ZM33.2047 34V29.104H38.1007V34H33.2047ZM43.2239 34V8.08H48.1199V34H43.2239ZM53.2282 34V29.104H58.1242V34H53.2282ZM68.8995 34V12.652H60.7275V8.08H81.9675V12.652H73.7955V34H68.8995ZM80.9862 34V29.104H85.8822V34H80.9862ZM100.437 34.54C98.5175 34.54 96.7835 34.204 95.2355 33.532C93.6995 32.848 92.4335 31.876 91.4375 30.616C90.4535 29.344 89.8295 27.832 89.5655 26.08L94.6775 25.324C95.0375 26.812 95.7815 27.958 96.9095 28.762C98.0375 29.566 99.3215 29.968 100.761 29.968C101.565 29.968 102.345 29.842 103.101 29.59C103.857 29.338 104.475 28.966 104.955 28.474C105.447 27.982 105.693 27.376 105.693 26.656C105.693 26.392 105.651 26.14 105.567 25.9C105.495 25.648 105.369 25.414 105.189 25.198C105.009 24.982 104.751 24.778 104.415 24.586C104.091 24.394 103.677 24.22 103.173 24.064L96.4415 22.084C95.9375 21.94 95.3495 21.736 94.6775 21.472C94.0175 21.208 93.3755 20.83 92.7515 20.338C92.1275 19.846 91.6055 19.198 91.1855 18.394C90.7775 17.578 90.5735 16.552 90.5735 15.316C90.5735 13.576 91.0115 12.13 91.8875 10.978C92.7635 9.826 93.9335 8.968 95.3975 8.404C96.8615 7.84 98.4815 7.564 100.257 7.576C102.045 7.6 103.641 7.906 105.045 8.494C106.449 9.082 107.625 9.94 108.573 11.068C109.521 12.184 110.205 13.552 110.625 15.172L105.333 16.072C105.141 15.232 104.787 14.524 104.271 13.948C103.755 13.372 103.137 12.934 102.417 12.634C101.709 12.334 100.965 12.172 100.185 12.148C99.4175 12.124 98.6915 12.232 98.0075 12.472C97.3355 12.7 96.7835 13.036 96.3515 13.48C95.9315 13.924 95.7215 14.452 95.7215 15.064C95.7215 15.628 95.8955 16.09 96.2435 16.45C96.5915 16.798 97.0295 17.08 97.5575 17.296C98.0855 17.512 98.6255 17.692 99.1775 17.836L103.677 19.06C104.349 19.24 105.093 19.48 105.909 19.78C106.725 20.068 107.505 20.476 108.249 21.004C109.005 21.52 109.623 22.204 110.103 23.056C110.595 23.908 110.841 24.988 110.841 26.296C110.841 27.688 110.547 28.906 109.959 29.95C109.383 30.982 108.603 31.84 107.619 32.524C106.635 33.196 105.519 33.7 104.271 34.036C103.035 34.372 101.757 34.54 100.437 34.54ZM113.596 34V29.104H118.492V34H113.596Z" fill="black"/>
<path d="M1.23295 44.8182H2.70455L6.16477 53.2699H6.28409L9.74432 44.8182H11.2159V55H10.0625V47.2642H9.96307L6.78125 55H5.66761L2.4858 47.2642H2.38636V55H1.23295V44.8182ZM16.6312 55.1591C15.9418 55.1591 15.3369 54.995 14.8166 54.6669C14.2995 54.3388 13.8952 53.8797 13.6035 53.2898C13.3152 52.6998 13.171 52.0104 13.171 51.2216C13.171 50.4261 13.3152 49.7318 13.6035 49.1385C13.8952 48.5452 14.2995 48.0845 14.8166 47.7564C15.3369 47.4283 15.9418 47.2642 16.6312 47.2642C17.3206 47.2642 17.9238 47.4283 18.4409 47.7564C18.9612 48.0845 19.3656 48.5452 19.6539 49.1385C19.9456 49.7318 20.0914 50.4261 20.0914 51.2216C20.0914 52.0104 19.9456 52.6998 19.6539 53.2898C19.3656 53.8797 18.9612 54.3388 18.4409 54.6669C17.9238 54.995 17.3206 55.1591 16.6312 55.1591ZM16.6312 54.1051C17.1549 54.1051 17.5858 53.9709 17.9238 53.7024C18.2619 53.4339 18.5121 53.081 18.6745 52.6435C18.8369 52.206 18.9181 51.732 18.9181 51.2216C18.9181 50.7112 18.8369 50.2356 18.6745 49.7947C18.5121 49.3539 18.2619 48.9976 17.9238 48.7259C17.5858 48.4541 17.1549 48.3182 16.6312 48.3182C16.1075 48.3182 15.6767 48.4541 15.3386 48.7259C15.0005 48.9976 14.7503 49.3539 14.5879 49.7947C14.4255 50.2356 14.3443 50.7112 14.3443 51.2216C14.3443 51.732 14.4255 52.206 14.5879 52.6435C14.7503 53.081 15.0005 53.4339 15.3386 53.7024C15.6767 53.9709 16.1075 54.1051 16.6312 54.1051ZM23.0558 50.4062V55H21.8825V47.3636H23.016V48.5568H23.1154C23.2944 48.169 23.5662 47.8575 23.9308 47.6222C24.2953 47.3835 24.766 47.2642 25.3427 47.2642C25.8597 47.2642 26.3121 47.3703 26.6999 47.5824C27.0877 47.7912 27.3893 48.1094 27.6048 48.5369C27.8202 48.9612 27.9279 49.4981 27.9279 50.1477V55H26.7546V50.2273C26.7546 49.6274 26.5988 49.16 26.2873 48.8253C25.9757 48.4872 25.5482 48.3182 25.0046 48.3182C24.6301 48.3182 24.2953 48.3994 24.0004 48.5618C23.7087 48.7242 23.4783 48.9612 23.3093 49.2727C23.1403 49.5843 23.0558 49.9621 23.0558 50.4062ZM32.3191 55.179C31.8352 55.179 31.396 55.0878 31.0016 54.9055C30.6072 54.7199 30.294 54.4531 30.062 54.1051C29.83 53.7538 29.714 53.3295 29.714 52.8324C29.714 52.3949 29.8001 52.0402 29.9725 51.7685C30.1448 51.4934 30.3752 51.2779 30.6635 51.1222C30.9519 50.9664 31.2701 50.8504 31.6181 50.7741C31.9694 50.6946 32.3224 50.6316 32.677 50.5852C33.141 50.5256 33.5172 50.4808 33.8056 50.451C34.0972 50.4179 34.3094 50.3632 34.4419 50.2869C34.5778 50.2107 34.6458 50.0781 34.6458 49.8892V49.8494C34.6458 49.3589 34.5115 48.9777 34.2431 48.706C33.9779 48.4342 33.5752 48.2983 33.035 48.2983C32.4748 48.2983 32.0357 48.4209 31.7175 48.6662C31.3993 48.9115 31.1756 49.1733 31.0463 49.4517L29.9327 49.054C30.1316 48.59 30.3967 48.2287 30.7282 47.9702C31.0629 47.7083 31.4275 47.526 31.8219 47.4233C32.2196 47.3172 32.6107 47.2642 32.9952 47.2642C33.2405 47.2642 33.5222 47.294 33.8404 47.3537C34.1619 47.41 34.4718 47.5277 34.7701 47.7067C35.0717 47.8857 35.3219 48.1558 35.5208 48.517C35.7196 48.8783 35.8191 49.3622 35.8191 49.9688V55H34.6458V53.9659H34.5861C34.5066 54.1316 34.374 54.3089 34.1884 54.4979C34.0028 54.6868 33.7559 54.8475 33.4476 54.9801C33.1394 55.1127 32.7632 55.179 32.3191 55.179ZM32.498 54.125C32.9621 54.125 33.3532 54.0339 33.6713 53.8516C33.9928 53.6693 34.2348 53.4339 34.3972 53.1456C34.5629 52.8572 34.6458 52.554 34.6458 52.2358V51.1619C34.5961 51.2216 34.4867 51.2763 34.3176 51.326C34.1519 51.3724 33.9597 51.4138 33.7409 51.4503C33.5255 51.4834 33.315 51.5133 33.1096 51.5398C32.9074 51.563 32.7433 51.5829 32.6174 51.5994C32.3124 51.6392 32.0274 51.7038 31.7623 51.7933C31.5004 51.8795 31.2883 52.0104 31.1259 52.1861C30.9668 52.3584 30.8873 52.5937 30.8873 52.892C30.8873 53.2997 31.0381 53.608 31.3397 53.8168C31.6446 54.0223 32.0307 54.125 32.498 54.125ZM43.2901 44.8182V55H42.0572V44.8182H43.2901ZM46.7765 50.4062V55H45.6032V47.3636H46.7367V48.5568H46.8361C47.0151 48.169 47.2869 47.8575 47.6515 47.6222C48.016 47.3835 48.4867 47.2642 49.0634 47.2642C49.5804 47.2642 50.0328 47.3703 50.4206 47.5824C50.8084 47.7912 51.11 48.1094 51.3255 48.5369C51.5409 48.9612 51.6486 49.4981 51.6486 50.1477V55H50.4753V50.2273C50.4753 49.6274 50.3195 49.16 50.008 48.8253C49.6964 48.4872 49.2689 48.3182 48.7253 48.3182C48.3508 48.3182 48.016 48.3994 47.7211 48.5618C47.4294 48.7242 47.199 48.9612 47.03 49.2727C46.861 49.5843 46.7765 49.9621 46.7765 50.4062ZM57.1932 47.3636V48.358H53.0767V47.3636H57.1932ZM54.3097 55V46.3097C54.3097 45.8722 54.4124 45.5076 54.6179 45.2159C54.8234 44.9242 55.0902 44.7055 55.4183 44.5597C55.7464 44.4138 56.0928 44.3409 56.4574 44.3409C56.7457 44.3409 56.9811 44.3641 57.1634 44.4105C57.3456 44.4569 57.4815 44.5 57.571 44.5398L57.233 45.554C57.1733 45.5341 57.0904 45.5092 56.9844 45.4794C56.8816 45.4496 56.7457 45.4347 56.5767 45.4347C56.1889 45.4347 55.9089 45.5324 55.7365 45.728C55.5675 45.9235 55.483 46.2102 55.483 46.5881V55H54.3097ZM61.6254 55.1591C60.936 55.1591 60.3311 54.995 59.8107 54.6669C59.2937 54.3388 58.8893 53.8797 58.5977 53.2898C58.3093 52.6998 58.1651 52.0104 58.1651 51.2216C58.1651 50.4261 58.3093 49.7318 58.5977 49.1385C58.8893 48.5452 59.2937 48.0845 59.8107 47.7564C60.3311 47.4283 60.936 47.2642 61.6254 47.2642C62.3147 47.2642 62.918 47.4283 63.435 47.7564C63.9554 48.0845 64.3597 48.5452 64.6481 49.1385C64.9397 49.7318 65.0856 50.4261 65.0856 51.2216C65.0856 52.0104 64.9397 52.6998 64.6481 53.2898C64.3597 53.8797 63.9554 54.3388 63.435 54.6669C62.918 54.995 62.3147 55.1591 61.6254 55.1591ZM61.6254 54.1051C62.149 54.1051 62.5799 53.9709 62.918 53.7024C63.256 53.4339 63.5063 53.081 63.6687 52.6435C63.8311 52.206 63.9123 51.732 63.9123 51.2216C63.9123 50.7112 63.8311 50.2356 63.6687 49.7947C63.5063 49.3539 63.256 48.9976 62.918 48.7259C62.5799 48.4541 62.149 48.3182 61.6254 48.3182C61.1017 48.3182 60.6708 48.4541 60.3327 48.7259C59.9947 48.9976 59.7444 49.3539 59.582 49.7947C59.4196 50.2356 59.3384 50.7112 59.3384 51.2216C59.3384 51.732 59.4196 52.206 59.582 52.6435C59.7444 53.081 59.9947 53.4339 60.3327 53.7024C60.6708 53.9709 61.1017 54.1051 61.6254 54.1051ZM66.8766 55V47.3636H68.0101V48.517H68.0897C68.2289 48.1392 68.4808 47.8326 68.8453 47.5973C69.2099 47.362 69.6209 47.2443 70.0783 47.2443C70.1645 47.2443 70.2722 47.246 70.4015 47.2493C70.5307 47.2526 70.6285 47.2576 70.6948 47.2642V48.4574C70.655 48.4474 70.5639 48.4325 70.4213 48.4126C70.2821 48.3894 70.1346 48.3778 69.9789 48.3778C69.6077 48.3778 69.2762 48.4557 68.9846 48.6115C68.6962 48.764 68.4675 48.9761 68.2985 49.2479C68.1328 49.5163 68.0499 49.8229 68.0499 50.1676V55H66.8766ZM72.0856 55V47.3636H73.2191V48.5568H73.3185C73.4776 48.1491 73.7345 47.8326 74.0891 47.6072C74.4438 47.3786 74.8697 47.2642 75.3668 47.2642C75.8706 47.2642 76.2899 47.3786 76.6246 47.6072C76.9627 47.8326 77.2262 48.1491 77.4151 48.5568H77.4947C77.6902 48.1624 77.9835 47.8492 78.3746 47.6172C78.7657 47.3819 79.2347 47.2642 79.7816 47.2642C80.4644 47.2642 81.0228 47.478 81.457 47.9055C81.8912 48.3298 82.1083 48.991 82.1083 49.8892V55H80.935V49.8892C80.935 49.3258 80.7809 48.9231 80.4727 48.6811C80.1644 48.4392 79.8015 48.3182 79.3839 48.3182C78.8469 48.3182 78.431 48.4806 78.136 48.8054C77.841 49.1269 77.6935 49.5346 77.6935 50.0284V55H76.5004V49.7699C76.5004 49.3357 76.3595 48.986 76.0778 48.7209C75.796 48.4524 75.4331 48.3182 74.989 48.3182C74.6841 48.3182 74.399 48.3994 74.1339 48.5618C73.872 48.7242 73.6599 48.9496 73.4975 49.2379C73.3384 49.523 73.2589 49.8527 73.2589 50.2273V55H72.0856ZM86.5007 55.179C86.0168 55.179 85.5777 55.0878 85.1832 54.9055C84.7888 54.7199 84.4756 54.4531 84.2436 54.1051C84.0116 53.7538 83.8956 53.3295 83.8956 52.8324C83.8956 52.3949 83.9818 52.0402 84.1541 51.7685C84.3265 51.4934 84.5568 51.2779 84.8452 51.1222C85.1335 50.9664 85.4517 50.8504 85.7997 50.7741C86.151 50.6946 86.504 50.6316 86.8587 50.5852C87.3227 50.5256 87.6989 50.4808 87.9872 50.451C88.2789 50.4179 88.491 50.3632 88.6236 50.2869C88.7595 50.2107 88.8274 50.0781 88.8274 49.8892V49.8494C88.8274 49.3589 88.6932 48.9777 88.4247 48.706C88.1596 48.4342 87.7569 48.2983 87.2166 48.2983C86.6565 48.2983 86.2173 48.4209 85.8991 48.6662C85.581 48.9115 85.3572 49.1733 85.228 49.4517L84.1143 49.054C84.3132 48.59 84.5784 48.2287 84.9098 47.9702C85.2446 47.7083 85.6091 47.526 86.0036 47.4233C86.4013 47.3172 86.7924 47.2642 87.1768 47.2642C87.4221 47.2642 87.7038 47.294 88.022 47.3537C88.3435 47.41 88.6534 47.5277 88.9517 47.7067C89.2533 47.8857 89.5036 48.1558 89.7024 48.517C89.9013 48.8783 90.0007 49.3622 90.0007 49.9688V55H88.8274V53.9659H88.7678C88.6882 54.1316 88.5556 54.3089 88.37 54.4979C88.1844 54.6868 87.9375 54.8475 87.6293 54.9801C87.321 55.1127 86.9448 55.179 86.5007 55.179ZM86.6797 54.125C87.1437 54.125 87.5348 54.0339 87.853 53.8516C88.1745 53.6693 88.4164 53.4339 88.5788 53.1456C88.7446 52.8572 88.8274 52.554 88.8274 52.2358V51.1619C88.7777 51.2216 88.6683 51.2763 88.4993 51.326C88.3336 51.3724 88.1413 51.4138 87.9226 51.4503C87.7071 51.4834 87.4967 51.5133 87.2912 51.5398C87.089 51.563 86.925 51.5829 86.799 51.5994C86.4941 51.6392 86.209 51.7038 85.9439 51.7933C85.6821 51.8795 85.4699 52.0104 85.3075 52.1861C85.1484 52.3584 85.0689 52.5937 85.0689 52.892C85.0689 53.2997 85.2197 53.608 85.5213 53.8168C85.8262 54.0223 86.2124 54.125 86.6797 54.125ZM95.4632 47.3636V48.358H91.5059V47.3636H95.4632ZM92.6593 45.5341H93.8326V52.8125C93.8326 53.1439 93.8806 53.3925 93.9767 53.5582C94.0762 53.7206 94.2021 53.83 94.3546 53.8864C94.5104 53.9394 94.6744 53.9659 94.8468 53.9659C94.976 53.9659 95.0821 53.9593 95.165 53.946C95.2478 53.9295 95.3141 53.9162 95.3638 53.9062L95.6025 54.9602C95.5229 54.9901 95.4119 55.0199 95.2694 55.0497C95.1268 55.0829 94.9462 55.0994 94.7275 55.0994C94.396 55.0994 94.0712 55.0282 93.753 54.8857C93.4382 54.7431 93.1763 54.526 92.9675 54.2344C92.762 53.9427 92.6593 53.5748 92.6593 53.1307V45.5341ZM97.2282 55V47.3636H98.4015V55H97.2282ZM97.8248 46.0909C97.5961 46.0909 97.3989 46.013 97.2331 45.8572C97.0707 45.7015 96.9895 45.5142 96.9895 45.2955C96.9895 45.0767 97.0707 44.8894 97.2331 44.7337C97.3989 44.5779 97.5961 44.5 97.8248 44.5C98.0534 44.5 98.249 44.5779 98.4114 44.7337C98.5771 44.8894 98.66 45.0767 98.66 45.2955C98.66 45.5142 98.5771 45.7015 98.4114 45.8572C98.249 46.013 98.0534 46.0909 97.8248 46.0909ZM103.653 55.1591C102.963 55.1591 102.358 54.995 101.838 54.6669C101.321 54.3388 100.917 53.8797 100.625 53.2898C100.337 52.6998 100.192 52.0104 100.192 51.2216C100.192 50.4261 100.337 49.7318 100.625 49.1385C100.917 48.5452 101.321 48.0845 101.838 47.7564C102.358 47.4283 102.963 47.2642 103.653 47.2642C104.342 47.2642 104.945 47.4283 105.462 47.7564C105.983 48.0845 106.387 48.5452 106.675 49.1385C106.967 49.7318 107.113 50.4261 107.113 51.2216C107.113 52.0104 106.967 52.6998 106.675 53.2898C106.387 53.8797 105.983 54.3388 105.462 54.6669C104.945 54.995 104.342 55.1591 103.653 55.1591ZM103.653 54.1051C104.176 54.1051 104.607 53.9709 104.945 53.7024C105.283 53.4339 105.534 53.081 105.696 52.6435C105.858 52.206 105.94 51.732 105.94 51.2216C105.94 50.7112 105.858 50.2356 105.696 49.7947C105.534 49.3539 105.283 48.9976 104.945 48.7259C104.607 48.4541 104.176 48.3182 103.653 48.3182C103.129 48.3182 102.698 48.4541 102.36 48.7259C102.022 48.9976 101.772 49.3539 101.609 49.7947C101.447 50.2356 101.366 50.7112 101.366 51.2216C101.366 51.732 101.447 52.206 101.609 52.6435C101.772 53.081 102.022 53.4339 102.36 53.7024C102.698 53.9709 103.129 54.1051 103.653 54.1051ZM110.077 50.4062V55H108.904V47.3636H110.037V48.5568H110.137C110.316 48.169 110.588 47.8575 110.952 47.6222C111.317 47.3835 111.787 47.2642 112.364 47.2642C112.881 47.2642 113.334 47.3703 113.721 47.5824C114.109 47.7912 114.411 48.1094 114.626 48.5369C114.842 48.9612 114.949 49.4981 114.949 50.1477V55H113.776V50.2273C113.776 49.6274 113.62 49.16 113.309 48.8253C112.997 48.4872 112.57 48.3182 112.026 48.3182C111.652 48.3182 111.317 48.3994 111.022 48.5618C110.73 48.7242 110.5 48.9612 110.331 49.2727C110.162 49.5843 110.077 49.9621 110.077 50.4062ZM0.676136 65.9119V64.8182H8.3125V65.9119H5.1108V75H3.87784V65.9119H0.676136ZM12.1506 75.1591C11.4148 75.1591 10.7801 74.9967 10.2464 74.6719C9.71615 74.3438 9.30682 73.8864 9.01847 73.2997C8.73343 72.7098 8.59091 72.0237 8.59091 71.2415C8.59091 70.4593 8.73343 69.7699 9.01847 69.1733C9.30682 68.5734 9.70786 68.1061 10.2216 67.7713C10.7386 67.4332 11.3419 67.2642 12.0312 67.2642C12.429 67.2642 12.8217 67.3305 13.2095 67.4631C13.5973 67.5956 13.9503 67.8111 14.2685 68.1094C14.5866 68.4044 14.8402 68.7955 15.0291 69.2827C15.218 69.7699 15.3125 70.3698 15.3125 71.0824V71.5795H9.42614V70.5653H14.1193C14.1193 70.1345 14.0331 69.75 13.8608 69.4119C13.6918 69.0739 13.4498 68.8071 13.1349 68.6115C12.8234 68.416 12.4555 68.3182 12.0312 68.3182C11.5639 68.3182 11.1596 68.4342 10.8182 68.6662C10.4801 68.8949 10.2199 69.1932 10.0376 69.5611C9.85535 69.929 9.7642 70.3234 9.7642 70.7443V71.4205C9.7642 71.9972 9.86364 72.486 10.0625 72.8871C10.2647 73.2848 10.5447 73.5881 10.9027 73.7969C11.2607 74.0024 11.6766 74.1051 12.1506 74.1051C12.4588 74.1051 12.7372 74.062 12.9858 73.9759C13.2377 73.8864 13.4548 73.7538 13.6371 73.5781C13.8194 73.3991 13.9602 73.1771 14.0597 72.9119L15.1932 73.2301C15.0739 73.6146 14.8733 73.9527 14.5916 74.2443C14.3099 74.5327 13.9619 74.758 13.5476 74.9205C13.1333 75.0795 12.6676 75.1591 12.1506 75.1591ZM20.1996 75.1591C19.4837 75.1591 18.8672 74.9901 18.3501 74.652C17.8331 74.3139 17.4354 73.8482 17.157 73.255C16.8786 72.6617 16.7393 71.9839 16.7393 71.2216C16.7393 70.446 16.8819 69.7616 17.1669 69.1683C17.4553 68.5717 17.8563 68.1061 18.37 67.7713C18.8871 67.4332 19.4903 67.2642 20.1797 67.2642C20.7166 67.2642 21.2005 67.3636 21.6314 67.5625C22.0623 67.7614 22.4152 68.0398 22.6903 68.3977C22.9654 68.7557 23.1361 69.1733 23.2024 69.6506H22.0291C21.9396 69.3026 21.7408 68.9943 21.4325 68.7259C21.1276 68.4541 20.7166 68.3182 20.1996 68.3182C19.7422 68.3182 19.3411 68.4375 18.9964 68.6761C18.6551 68.9115 18.3883 69.2446 18.196 69.6754C18.0071 70.103 17.9126 70.6051 17.9126 71.1818C17.9126 71.7718 18.0054 72.2855 18.1911 72.723C18.38 73.1605 18.6451 73.5002 18.9865 73.7422C19.3312 73.9841 19.7356 74.1051 20.1996 74.1051C20.5045 74.1051 20.7812 74.0521 21.0298 73.946C21.2784 73.84 21.4889 73.6875 21.6612 73.4886C21.8336 73.2898 21.9562 73.0511 22.0291 72.7727H23.2024C23.1361 73.2235 22.9721 73.6295 22.7102 73.9908C22.4517 74.3487 22.1087 74.6338 21.6811 74.8459C21.2569 75.0547 20.763 75.1591 20.1996 75.1591ZM26.0909 70.4062V75H24.9176V64.8182H26.0909V68.5568H26.1903C26.3693 68.1624 26.6378 67.8492 26.9957 67.6172C27.357 67.3819 27.8376 67.2642 28.4375 67.2642C28.9579 67.2642 29.4136 67.3686 29.8047 67.5774C30.1958 67.7829 30.4991 68.0994 30.7145 68.527C30.9332 68.9512 31.0426 69.4915 31.0426 70.1477V75H29.8693V70.2273C29.8693 69.6207 29.7119 69.1518 29.397 68.8203C29.0855 68.4856 28.6529 68.3182 28.0994 68.3182C27.715 68.3182 27.3703 68.3994 27.0653 68.5618C26.7637 68.7242 26.5251 68.9612 26.3494 69.2727C26.1771 69.5843 26.0909 69.9621 26.0909 70.4062ZM34.3624 70.4062V75H33.1891V67.3636H34.3226V68.5568H34.4221C34.601 68.169 34.8728 67.8575 35.2374 67.6222C35.602 67.3835 36.0726 67.2642 36.6493 67.2642C37.1664 67.2642 37.6188 67.3703 38.0066 67.5824C38.3944 67.7912 38.696 68.1094 38.9114 68.5369C39.1268 68.9612 39.2346 69.4981 39.2346 70.1477V75H38.0613V70.2273C38.0613 69.6274 37.9055 69.16 37.5939 68.8253C37.2824 68.4872 36.8548 68.3182 36.3113 68.3182C35.9367 68.3182 35.602 68.3994 35.307 68.5618C35.0153 68.7242 34.785 68.9612 34.6159 69.2727C34.4469 69.5843 34.3624 69.9621 34.3624 70.4062ZM44.4808 75.1591C43.7914 75.1591 43.1866 74.995 42.6662 74.6669C42.1491 74.3388 41.7448 73.8797 41.4531 73.2898C41.1648 72.6998 41.0206 72.0104 41.0206 71.2216C41.0206 70.4261 41.1648 69.7318 41.4531 69.1385C41.7448 68.5452 42.1491 68.0845 42.6662 67.7564C43.1866 67.4283 43.7914 67.2642 44.4808 67.2642C45.1702 67.2642 45.7734 67.4283 46.2905 67.7564C46.8108 68.0845 47.2152 68.5452 47.5036 69.1385C47.7952 69.7318 47.9411 70.4261 47.9411 71.2216C47.9411 72.0104 47.7952 72.6998 47.5036 73.2898C47.2152 73.8797 46.8108 74.3388 46.2905 74.6669C45.7734 74.995 45.1702 75.1591 44.4808 75.1591ZM44.4808 74.1051C45.0045 74.1051 45.4354 73.9709 45.7734 73.7024C46.1115 73.4339 46.3617 73.081 46.5241 72.6435C46.6866 72.206 46.7678 71.732 46.7678 71.2216C46.7678 70.7112 46.6866 70.2356 46.5241 69.7947C46.3617 69.3539 46.1115 68.9976 45.7734 68.7259C45.4354 68.4541 45.0045 68.3182 44.4808 68.3182C43.9571 68.3182 43.5263 68.4541 43.1882 68.7259C42.8501 68.9976 42.5999 69.3539 42.4375 69.7947C42.2751 70.2356 42.1939 70.7112 42.1939 71.2216C42.1939 71.732 42.2751 72.206 42.4375 72.6435C42.5999 73.081 42.8501 73.4339 43.1882 73.7024C43.5263 73.9709 43.9571 74.1051 44.4808 74.1051ZM50.9054 64.8182V75H49.7321V64.8182H50.9054ZM56.1566 75.1591C55.4672 75.1591 54.8623 74.995 54.342 74.6669C53.8249 74.3388 53.4206 73.8797 53.1289 73.2898C52.8406 72.6998 52.6964 72.0104 52.6964 71.2216C52.6964 70.4261 52.8406 69.7318 53.1289 69.1385C53.4206 68.5452 53.8249 68.0845 54.342 67.7564C54.8623 67.4283 55.4672 67.2642 56.1566 67.2642C56.846 67.2642 57.4492 67.4283 57.9663 67.7564C58.4866 68.0845 58.891 68.5452 59.1793 69.1385C59.471 69.7318 59.6168 70.4261 59.6168 71.2216C59.6168 72.0104 59.471 72.6998 59.1793 73.2898C58.891 73.8797 58.4866 74.3388 57.9663 74.6669C57.4492 74.995 56.846 75.1591 56.1566 75.1591ZM56.1566 74.1051C56.6803 74.1051 57.1112 73.9709 57.4492 73.7024C57.7873 73.4339 58.0375 73.081 58.1999 72.6435C58.3623 72.206 58.4435 71.732 58.4435 71.2216C58.4435 70.7112 58.3623 70.2356 58.1999 69.7947C58.0375 69.3539 57.7873 68.9976 57.4492 68.7259C57.1112 68.4541 56.6803 68.3182 56.1566 68.3182C55.6329 68.3182 55.2021 68.4541 54.864 68.7259C54.5259 68.9976 54.2757 69.3539 54.1133 69.7947C53.9509 70.2356 53.8697 70.7112 53.8697 71.2216C53.8697 71.732 53.9509 72.206 54.1133 72.6435C54.2757 73.081 54.5259 73.4339 54.864 73.7024C55.2021 73.9709 55.6329 74.1051 56.1566 74.1051ZM64.4902 78.0227C63.9235 78.0227 63.4363 77.9498 63.0286 77.804C62.6209 77.6615 62.2812 77.4725 62.0094 77.2372C61.7409 77.0052 61.5272 76.7566 61.3681 76.4915L62.3027 75.8352C62.4088 75.9744 62.543 76.1335 62.7054 76.3125C62.8678 76.4948 63.0899 76.6522 63.3716 76.7848C63.6567 76.9207 64.0295 76.9886 64.4902 76.9886C65.1067 76.9886 65.6155 76.8395 66.0165 76.5412C66.4176 76.2429 66.6181 75.7756 66.6181 75.1392V73.5881H66.5186C66.4325 73.7273 66.3098 73.8996 66.1507 74.1051C65.995 74.3073 65.7696 74.4879 65.4746 74.647C65.1829 74.8028 64.7885 74.8807 64.2914 74.8807C63.6749 74.8807 63.1214 74.7348 62.6309 74.4432C62.1436 74.1515 61.7575 73.7273 61.4725 73.1705C61.1908 72.6136 61.0499 71.9375 61.0499 71.142C61.0499 70.3598 61.1874 69.6787 61.4625 69.0987C61.7376 68.5154 62.1204 68.0646 62.611 67.7464C63.1015 67.425 63.6683 67.2642 64.3113 67.2642C64.8084 67.2642 65.2028 67.3471 65.4945 67.5128C65.7895 67.6752 66.0149 67.8608 66.1706 68.0696C66.3297 68.2751 66.4524 68.4441 66.5385 68.5767H66.6578V67.3636H67.7914V75.2188C67.7914 75.875 67.6422 76.4086 67.3439 76.8196C67.0489 77.2339 66.6512 77.5372 66.1507 77.7294C65.6536 77.925 65.1001 78.0227 64.4902 78.0227ZM64.4505 73.8267C64.9211 73.8267 65.3188 73.719 65.6436 73.5036C65.9685 73.2881 66.2154 72.9782 66.3844 72.5739C66.5534 72.1695 66.638 71.6856 66.638 71.1222C66.638 70.572 66.5551 70.0864 66.3894 69.6655C66.2237 69.2446 65.9784 68.9148 65.6536 68.6761C65.3288 68.4375 64.9277 68.3182 64.4505 68.3182C63.9533 68.3182 63.539 68.4441 63.2076 68.696C62.8794 68.9479 62.6325 69.286 62.4668 69.7102C62.3044 70.1345 62.2232 70.6051 62.2232 71.1222C62.2232 71.6525 62.306 72.1214 62.4718 72.5291C62.6408 72.9335 62.8894 73.2517 63.2175 73.4837C63.5489 73.7124 63.9599 73.8267 64.4505 73.8267ZM70.6948 77.8636C70.4959 77.8636 70.3186 77.8471 70.1628 77.8139C70.007 77.7841 69.8993 77.7543 69.8397 77.7244L70.138 76.6903C70.423 76.7633 70.6749 76.7898 70.8936 76.7699C71.1124 76.75 71.3063 76.6522 71.4753 76.4766C71.6477 76.3042 71.8051 76.0241 71.9476 75.6364L72.1664 75.0398L69.3425 67.3636H70.6152L72.7232 73.4489H72.8027L74.9107 67.3636H76.1834L72.9419 76.1136C72.7961 76.508 72.6155 76.8345 72.4 77.093C72.1846 77.3549 71.9344 77.5488 71.6493 77.6747C71.3676 77.8007 71.0494 77.8636 70.6948 77.8636ZM87.3968 67.3636C87.3372 66.8598 87.0952 66.4688 86.671 66.1903C86.2467 65.9119 85.7264 65.7727 85.1099 65.7727C84.6592 65.7727 84.2647 65.8456 83.9267 65.9915C83.5919 66.1373 83.3301 66.3378 83.1412 66.593C82.9556 66.8482 82.8627 67.1383 82.8627 67.4631C82.8627 67.7348 82.9274 67.9685 83.0566 68.1641C83.1892 68.3563 83.3583 68.517 83.5637 68.6463C83.7692 68.7723 83.9847 68.8767 84.21 68.9595C84.4354 69.0391 84.6426 69.1037 84.8315 69.1534L85.8656 69.4318C86.1307 69.5014 86.4257 69.5975 86.7505 69.7202C87.0787 69.8428 87.3919 70.0102 87.6902 70.2223C87.9918 70.4311 88.2404 70.6996 88.4359 71.0277C88.6315 71.3558 88.7292 71.7585 88.7292 72.2358C88.7292 72.786 88.5851 73.2831 88.2967 73.7273C88.0117 74.1714 87.594 74.5244 87.0439 74.7862C86.497 75.0481 85.8324 75.179 85.0502 75.179C84.3211 75.179 83.6897 75.0613 83.1561 74.826C82.6258 74.5907 82.2082 74.2625 81.9032 73.8416C81.6016 73.4207 81.4309 72.9318 81.3912 72.375H82.6639C82.697 72.7595 82.8263 73.0777 83.0517 73.3295C83.2804 73.5781 83.5687 73.7637 83.9167 73.8864C84.2681 74.0057 84.6459 74.0653 85.0502 74.0653C85.5209 74.0653 85.9435 73.9891 86.318 73.8366C86.6925 73.6809 86.9892 73.4654 87.2079 73.1903C87.4267 72.9119 87.536 72.5871 87.536 72.2159C87.536 71.8778 87.4416 71.6027 87.2527 71.3906C87.0637 71.1785 86.8152 71.0062 86.5069 70.8736C86.1987 70.741 85.8656 70.625 85.5076 70.5256L84.2548 70.1676C83.4593 69.9389 82.8296 69.6125 82.3656 69.1882C81.9016 68.764 81.6696 68.2088 81.6696 67.5227C81.6696 66.9527 81.8237 66.4555 82.1319 66.0312C82.4435 65.6037 82.8611 65.2723 83.3848 65.0369C83.9118 64.7983 84.5001 64.679 85.1497 64.679C85.8059 64.679 86.3893 64.7966 86.8997 65.032C87.4101 65.264 87.8145 65.5821 88.1127 65.9865C88.4144 66.3909 88.5734 66.8499 88.59 67.3636H87.3968ZM93.799 75.1591C93.0632 75.1591 92.4285 74.9967 91.8949 74.6719C91.3646 74.3438 90.9553 73.8864 90.6669 73.2997C90.3819 72.7098 90.2393 72.0237 90.2393 71.2415C90.2393 70.4593 90.3819 69.7699 90.6669 69.1733C90.9553 68.5734 91.3563 68.1061 91.87 67.7713C92.3871 67.4332 92.9903 67.2642 93.6797 67.2642C94.0774 67.2642 94.4702 67.3305 94.858 67.4631C95.2457 67.5956 95.5987 67.8111 95.9169 68.1094C96.2351 68.4044 96.4886 68.7955 96.6776 69.2827C96.8665 69.7699 96.9609 70.3698 96.9609 71.0824V71.5795H91.0746V70.5653H95.7678C95.7678 70.1345 95.6816 69.75 95.5092 69.4119C95.3402 69.0739 95.0982 68.8071 94.7834 68.6115C94.4718 68.416 94.1039 68.3182 93.6797 68.3182C93.2124 68.3182 92.808 68.4342 92.4666 68.6662C92.1286 68.8949 91.8684 69.1932 91.6861 69.5611C91.5038 69.929 91.4126 70.3234 91.4126 70.7443V71.4205C91.4126 71.9972 91.5121 72.486 91.7109 72.8871C91.9131 73.2848 92.1932 73.5881 92.5511 73.7969C92.9091 74.0024 93.325 74.1051 93.799 74.1051C94.1072 74.1051 94.3857 74.062 94.6342 73.9759C94.8861 73.8864 95.1032 73.7538 95.2855 73.5781C95.4678 73.3991 95.6087 73.1771 95.7081 72.9119L96.8416 73.2301C96.7223 73.6146 96.5218 73.9527 96.2401 74.2443C95.9583 74.5327 95.6103 74.758 95.196 74.9205C94.7817 75.0795 94.3161 75.1591 93.799 75.1591ZM98.7457 75V67.3636H99.8793V68.517H99.9588C100.098 68.1392 100.35 67.8326 100.714 67.5973C101.079 67.362 101.49 67.2443 101.947 67.2443C102.034 67.2443 102.141 67.246 102.271 67.2493C102.4 67.2526 102.498 67.2576 102.564 67.2642V68.4574C102.524 68.4474 102.433 68.4325 102.29 68.4126C102.151 68.3894 102.004 68.3778 101.848 68.3778C101.477 68.3778 101.145 68.4557 100.854 68.6115C100.565 68.764 100.337 68.9761 100.168 69.2479C100.002 69.5163 99.919 69.8229 99.919 70.1676V75H98.7457ZM110.431 67.3636L107.608 75H106.414L103.591 67.3636H104.863L106.971 73.4489H107.051L109.159 67.3636H110.431ZM111.98 75V67.3636H113.153V75H111.98ZM112.577 66.0909C112.348 66.0909 112.151 66.013 111.985 65.8572C111.823 65.7015 111.741 65.5142 111.741 65.2955C111.741 65.0767 111.823 64.8894 111.985 64.7337C112.151 64.5779 112.348 64.5 112.577 64.5C112.805 64.5 113.001 64.5779 113.163 64.7337C113.329 64.8894 113.412 65.0767 113.412 65.2955C113.412 65.5142 113.329 65.7015 113.163 65.8572C113.001 66.013 112.805 66.0909 112.577 66.0909ZM118.405 75.1591C117.689 75.1591 117.072 74.9901 116.555 74.652C116.038 74.3139 115.64 73.8482 115.362 73.255C115.084 72.6617 114.944 71.9839 114.944 71.2216C114.944 70.446 115.087 69.7616 115.372 69.1683C115.66 68.5717 116.061 68.1061 116.575 67.7713C117.092 67.4332 117.695 67.2642 118.385 67.2642C118.922 67.2642 119.406 67.3636 119.836 67.5625C120.267 67.7614 120.62 68.0398 120.895 68.3977C121.171 68.7557 121.341 69.1733 121.407 69.6506H120.234C120.145 69.3026 119.946 68.9943 119.638 68.7259C119.333 68.4541 118.922 68.3182 118.405 68.3182C117.947 68.3182 117.546 68.4375 117.202 68.6761C116.86 68.9115 116.593 69.2446 116.401 69.6754C116.212 70.103 116.118 70.6051 116.118 71.1818C116.118 71.7718 116.211 72.2855 116.396 72.723C116.585 73.1605 116.85 73.5002 117.192 73.7422C117.536 73.9841 117.941 74.1051 118.405 74.1051C118.71 74.1051 118.986 74.0521 119.235 73.946C119.483 73.84 119.694 73.6875 119.866 73.4886C120.039 73.2898 120.161 73.0511 120.234 72.7727H121.407C121.341 73.2235 121.177 73.6295 120.915 73.9908C120.657 74.3487 120.314 74.6338 119.886 74.8459C119.462 75.0547 118.968 75.1591 118.405 75.1591ZM126.324 75.1591C125.589 75.1591 124.954 74.9967 124.42 74.6719C123.89 74.3438 123.481 73.8864 123.192 73.2997C122.907 72.7098 122.765 72.0237 122.765 71.2415C122.765 70.4593 122.907 69.7699 123.192 69.1733C123.481 68.5734 123.882 68.1061 124.395 67.7713C124.912 67.4332 125.516 67.2642 126.205 67.2642C126.603 67.2642 126.996 67.3305 127.383 67.4631C127.771 67.5956 128.124 67.8111 128.442 68.1094C128.76 68.4044 129.014 68.7955 129.203 69.2827C129.392 69.7699 129.486 70.3698 129.486 71.0824V71.5795H123.6V70.5653H128.293C128.293 70.1345 128.207 69.75 128.035 69.4119C127.866 69.0739 127.624 68.8071 127.309 68.6115C126.997 68.416 126.629 68.3182 126.205 68.3182C125.738 68.3182 125.333 68.4342 124.992 68.6662C124.654 68.8949 124.394 69.1932 124.211 69.5611C124.029 69.929 123.938 70.3234 123.938 70.7443V71.4205C123.938 71.9972 124.037 72.486 124.236 72.8871C124.439 73.2848 124.719 73.5881 125.077 73.7969C125.434 74.0024 125.85 74.1051 126.324 74.1051C126.633 74.1051 126.911 74.062 127.16 73.9759C127.412 73.8864 127.629 73.7538 127.811 73.5781C127.993 73.3991 128.134 73.1771 128.233 72.9119L129.367 73.2301C129.248 73.6146 129.047 73.9527 128.765 74.2443C128.484 74.5327 128.136 74.758 127.721 74.9205C127.307 75.0795 126.841 75.1591 126.324 75.1591ZM136.68 69.0739L135.626 69.3722C135.56 69.1965 135.462 69.0258 135.333 68.8601C135.207 68.6911 135.035 68.5518 134.816 68.4425C134.597 68.3331 134.317 68.2784 133.976 68.2784C133.508 68.2784 133.119 68.3861 132.807 68.6016C132.499 68.8137 132.345 69.0838 132.345 69.4119C132.345 69.7036 132.451 69.9339 132.663 70.103C132.875 70.272 133.207 70.4129 133.657 70.5256L134.791 70.804C135.474 70.9697 135.983 71.2232 136.317 71.5646C136.652 71.9027 136.819 72.3385 136.819 72.8722C136.819 73.3097 136.693 73.7008 136.442 74.0455C136.193 74.3902 135.845 74.6619 135.398 74.8608C134.95 75.0597 134.43 75.1591 133.836 75.1591C133.058 75.1591 132.413 74.9901 131.903 74.652C131.392 74.3139 131.069 73.8201 130.933 73.1705L132.047 72.892C132.153 73.303 132.353 73.6113 132.648 73.8168C132.947 74.0223 133.336 74.125 133.817 74.125C134.363 74.125 134.798 74.009 135.119 73.777C135.444 73.5417 135.606 73.2599 135.606 72.9318C135.606 72.6667 135.514 72.4446 135.328 72.2656C135.142 72.0833 134.857 71.9474 134.473 71.858L133.2 71.5597C132.501 71.3939 131.987 71.1371 131.659 70.7891C131.334 70.4377 131.172 69.9986 131.172 69.4716C131.172 69.0407 131.293 68.6596 131.535 68.3281C131.78 67.9967 132.113 67.7365 132.534 67.5476C132.958 67.3587 133.439 67.2642 133.976 67.2642C134.731 67.2642 135.325 67.4299 135.756 67.7614C136.19 68.0928 136.498 68.5303 136.68 69.0739Z" fill="#030712"/>
</svg>
