<svg xmlns="http://www.w3.org/2000/svg" xmlns:xlink="http://www.w3.org/1999/xlink">
	<defs>
		<!-- Material Symbols -->

		<symbol id="arrow_right" viewBox="0 0 24 24">
			<path d="M16.175 13H4V11H16.175L10.575 5.4L12 4L20 12L12 20L10.575 18.6L16.175 13Z" />
		</symbol>

		<symbol id="check" viewBox="0 0 24 24">
			<path d="M9.55 18.0001L3.85 12.3001L5.275 10.8751L9.55 15.1501L18.725 5.9751L20.15 7.4001L9.55 18.0001Z" />
		</symbol>

		<symbol id="close" viewBox="0 0 24 24">
			<path d="M6.4 19L5 17.6L10.6 12L5 6.4L6.4 5L12 10.6L17.6 5L19 6.4L13.4 12L19 17.6L17.6 19L12 13.4L6.4 19Z" />
		</symbol>

		<symbol id="chevron_down" viewBox="0 0 24 24">
			<path d="M12 15.3751L6 9.3751L7.4 7.9751L12 12.5751L16.6 7.9751L18 9.3751L12 15.3751Z" />
		</symbol>

		<symbol id="chevron_up" viewBox="0 0 24 24">
			<path d="M7.4 15.3751L6 13.9751L12 7.9751L18 13.9751L16.6 15.3751L12 10.7751L7.4 15.3751Z" />
		</symbol>

		<symbol id="help" viewBox="0 0 20 20">
			<path
				d="M10 15C10.2778 15 10.5139 14.9028 10.7083 14.7083C10.9028 14.5139 11 14.2778 11 14C11 13.7222 10.9028 13.4861 10.7083 13.2917C10.5139 13.0972 10.2778 13 10 13C9.72222 13 9.48611 13.0972 9.29167 13.2917C9.09722 13.4861 9 13.7222 9 14C9 14.2778 9.09722 14.5139 9.29167 14.7083C9.48611 14.9028 9.72222 15 10 15ZM9.25 11.8125H10.7708C10.7708 11.2986 10.816 10.934 10.9062 10.7188C10.9965 10.5035 11.2153 10.2292 11.5625 9.89583C12.0486 9.42361 12.3854 9.02083 12.5729 8.6875C12.7604 8.35417 12.8542 7.98611 12.8542 7.58333C12.8542 6.81944 12.5938 6.19792 12.0729 5.71875C11.5521 5.23958 10.8889 5 10.0833 5C9.375 5 8.76042 5.1875 8.23958 5.5625C7.71875 5.9375 7.35417 6.44444 7.14583 7.08333L8.5 7.64583C8.625 7.25694 8.82292 6.95486 9.09375 6.73958C9.36458 6.52431 9.68056 6.41667 10.0417 6.41667C10.4306 6.41667 10.75 6.52778 11 6.75C11.25 6.97222 11.375 7.26389 11.375 7.625C11.375 7.94444 11.2674 8.22917 11.0521 8.47917C10.8368 8.72917 10.5972 8.97222 10.3333 9.20833C9.84722 9.65278 9.54514 10.0174 9.42708 10.3021C9.30903 10.5868 9.25 11.0903 9.25 11.8125ZM10 18C8.90278 18 7.86806 17.7917 6.89583 17.375C5.92361 16.9583 5.07292 16.3854 4.34375 15.6562C3.61458 14.9271 3.04167 14.0764 2.625 13.1042C2.20833 12.1319 2 11.0972 2 10C2 8.88889 2.20833 7.85069 2.625 6.88542C3.04167 5.92014 3.61458 5.07292 4.34375 4.34375C5.07292 3.61458 5.92361 3.04167 6.89583 2.625C7.86806 2.20833 8.90278 2 10 2C11.1111 2 12.1493 2.20833 13.1146 2.625C14.0799 3.04167 14.9271 3.61458 15.6562 4.34375C16.3854 5.07292 16.9583 5.92014 17.375 6.88542C17.7917 7.85069 18 8.88889 18 10C18 11.0972 17.7917 12.1319 17.375 13.1042C16.9583 14.0764 16.3854 14.9271 15.6562 15.6562C14.9271 16.3854 14.0799 16.9583 13.1146 17.375C12.1493 17.7917 11.1111 18 10 18ZM10 16.5C11.8056 16.5 13.3403 15.8681 14.6042 14.6042C15.8681 13.3403 16.5 11.8056 16.5 10C16.5 8.19444 15.8681 6.65972 14.6042 5.39583C13.3403 4.13194 11.8056 3.5 10 3.5C8.19444 3.5 6.65972 4.13194 5.39583 5.39583C4.13194 6.65972 3.5 8.19444 3.5 10C3.5 11.8056 4.13194 13.3403 5.39583 14.6042C6.65972 15.8681 8.19444 16.5 10 16.5Z" />
		</symbol>

		<symbol id="menu" viewBox="0 0 24 24">
			<path
				d="M3.25003 17.6347V16.1347H20.75V17.6347H3.25003ZM3.25003 12.7501V11.2501H20.75V12.7501H3.25003ZM3.25003 7.86545V6.36548H20.75V7.86545H3.25003Z" />
		</symbol>

		<symbol id="minus" viewBox="0 0 24 24">
			<path d="M5 13V11H19V13H5Z" />
		</symbol>

		<symbol id="plus" viewBox="0 0 24 24">
			<path d="M11 19V13H5V11H11V5H13V11H19V13H13V19H11Z" />
		</symbol>

		<symbol id="support_agent" viewBox="0 0 24 24">
			<path
				d="M11 21V19H19V11.9C19 9.95 18.3208 8.29583 16.9625 6.9375C15.6042 5.57917 13.95 4.9 12 4.9C10.05 4.9 8.39583 5.57917 7.0375 6.9375C5.67917 8.29583 5 9.95 5 11.9V18H4C3.45 18 2.97917 17.8042 2.5875 17.4125C2.19583 17.0208 2 16.55 2 16V14C2 13.65 2.0875 13.3208 2.2625 13.0125C2.4375 12.7042 2.68333 12.4583 3 12.275L3.075 10.95C3.20833 9.81667 3.5375 8.76667 4.0625 7.8C4.5875 6.83333 5.24583 5.99167 6.0375 5.275C6.82917 4.55833 7.7375 4 8.7625 3.6C9.7875 3.2 10.8667 3 12 3C13.1333 3 14.2083 3.2 15.225 3.6C16.2417 4 17.15 4.55417 17.95 5.2625C18.75 5.97083 19.4083 6.80833 19.925 7.775C20.4417 8.74167 20.775 9.79167 20.925 10.925L21 12.225C21.3167 12.375 21.5625 12.6 21.7375 12.9C21.9125 13.2 22 13.5167 22 13.85V16.15C22 16.4833 21.9125 16.8 21.7375 17.1C21.5625 17.4 21.3167 17.625 21 17.775V19C21 19.55 20.8042 20.0208 20.4125 20.4125C20.0208 20.8042 19.55 21 19 21H11ZM9 14C8.71667 14 8.47917 13.9042 8.2875 13.7125C8.09583 13.5208 8 13.2833 8 13C8 12.7167 8.09583 12.4792 8.2875 12.2875C8.47917 12.0958 8.71667 12 9 12C9.28333 12 9.52083 12.0958 9.7125 12.2875C9.90417 12.4792 10 12.7167 10 13C10 13.2833 9.90417 13.5208 9.7125 13.7125C9.52083 13.9042 9.28333 14 9 14ZM15 14C14.7167 14 14.4792 13.9042 14.2875 13.7125C14.0958 13.5208 14 13.2833 14 13C14 12.7167 14.0958 12.4792 14.2875 12.2875C14.4792 12.0958 14.7167 12 15 12C15.2833 12 15.5208 12.0958 15.7125 12.2875C15.9042 12.4792 16 12.7167 16 13C16 13.2833 15.9042 13.5208 15.7125 13.7125C15.5208 13.9042 15.2833 14 15 14ZM6.025 12.45C5.90833 10.6833 6.44167 9.16667 7.625 7.9C8.80833 6.63333 10.2833 6 12.05 6C13.5333 6 14.8375 6.47083 15.9625 7.4125C17.0875 8.35417 17.7667 9.55833 18 11.025C16.4833 11.0083 15.0875 10.6 13.8125 9.8C12.5375 9 11.5583 7.91667 10.875 6.55C10.6083 7.88333 10.0458 9.07083 9.1875 10.1125C8.32917 11.1542 7.275 11.9333 6.025 12.45Z" />
		</symbol>
	</defs>
</svg>